STARTFONT 2.1
COMMENT generated by font-problems
FONT bizcat.bdf
SIZE 16 72 72
FONTBOUNDINGBOX 8 16 0 0
SWIDTH 500 0
DWIDTH 8 0
STARTPROPERTIES 9
FAMILY_NAME "bizcat.bdf"
COPYRIGHT ""
PIXEL_SIZE 16
RESOLUTION_X 72
RESOLUTION_Y 72
CHARSET_REGISTRY "ISO10646"
CHARSET_ENCODING "1"
FONT_ASCENT 16
FONT_DESCENT 0
ENDPROPERTIES
CHARS 213
STARTCHAR U+00000
ENCODING 0
SWIDTH 500 0
DWIDTH 8 0
BBX 8 16 0 0
BITMAP
00
D6
AA
D6
82
D6
82
BA
AA
AA
BA
82
D6
82
82
80
ENDCHAR
STARTCHAR U+00014
ENCODING 20
SWIDTH 500 0
DWIDTH 8 0
BBX 8 16 0 0
BITMAP
00
D6
AA
D6
82
D6
82
BA
AA
AA
BA
82
D6
82
82
82
ENDCHAR
STARTCHAR U+00015
ENCODING 21
SWIDTH 500 0
DWIDTH 8 0
BBX 8 16 0 0
BITMAP
00
D6
AA
D6
82
D6
82
BA
AA
AA
BA
82
D6
82
82
82
ENDCHAR
STARTCHAR U+00016
ENCODING 22
SWIDTH 500 0
DWIDTH 8 0
BBX 8 16 0 0
BITMAP
00
D6
AA
D6
82
D6
82
BA
AA
AA
BA
82
D6
82
82
82
ENDCHAR
STARTCHAR U+00017
ENCODING 23
SWIDTH 500 0
DWIDTH 8 0
BBX 8 16 0 0
BITMAP
00
D6
AA
D6
82
D6
82
BA
AA
AA
BA
82
D6
82
82
82
ENDCHAR
STARTCHAR U+00018
ENCODING 24
SWIDTH 500 0
DWIDTH 8 0
BBX 8 16 0 0
BITMAP
00
D6
AA
D6
82
D6
82
BA
AA
AA
BA
82
D6
82
82
82
ENDCHAR
STARTCHAR U+00019
ENCODING 25
SWIDTH 500 0
DWIDTH 8 0
BBX 8 16 0 0
BITMAP
00
D6
AA
D6
82
D6
82
BA
AA
AA
BA
82
D6
82
82
82
ENDCHAR
STARTCHAR U+0001a
ENCODING 26
SWIDTH 500 0
DWIDTH 8 0
BBX 8 16 0 0
BITMAP
00
D6
AA
D6
82
D6
82
BA
AA
AA
BA
82
D6
82
82
82
ENDCHAR
STARTCHAR U+0001b
ENCODING 27
SWIDTH 500 0
DWIDTH 8 0
BBX 8 16 0 0
BITMAP
00
D6
AA
D6
82
D6
82
BA
AA
AA
BA
82
D6
82
82
82
ENDCHAR
STARTCHAR U+0001c
ENCODING 28
SWIDTH 500 0
DWIDTH 8 0
BBX 8 16 0 0
BITMAP
00
D6
AA
D6
82
D6
82
BA
AA
AA
BA
82
D6
82
82
82
ENDCHAR
STARTCHAR U+0001d
ENCODING 29
SWIDTH 500 0
DWIDTH 8 0
BBX 8 16 0 0
BITMAP
00
D6
AA
D6
82
D6
82
BA
AA
AA
BA
82
D6
82
82
82
ENDCHAR
STARTCHAR U+0001e
ENCODING 30
SWIDTH 500 0
DWIDTH 8 0
BBX 8 16 0 0
BITMAP
00
D6
AA
D6
82
D6
82
BA
AA
AA
BA
82
D6
82
82
82
ENDCHAR
STARTCHAR U+0001f
ENCODING 31
SWIDTH 500 0
DWIDTH 8 0
BBX 8 16 0 0
BITMAP
00
D6
AA
D6
82
D6
82
BA
AA
AA
BA
82
D6
82
82
80
ENDCHAR
STARTCHAR U+00020
ENCODING 32
SWIDTH 500 0
DWIDTH 8 0
BBX 8 16 0 0
BITMAP
00
00
00
00
00
00
00
00
00
00
00
00
00
00
00
00
ENDCHAR
STARTCHAR U+00021
ENCODING 33
SWIDTH 500 0
DWIDTH 8 0
BBX 8 16 0 0
BITMAP
00
00
00
30
30
30
30
30
30
30
00
30
30
00
00
00
ENDCHAR
STARTCHAR U+00022
ENCODING 34
SWIDTH 500 0
DWIDTH 8 0
BBX 8 16 0 0
BITMAP
00
00
6C
6C
6C
6C
6C
00
00
00
00
00
00
00
00
00
ENDCHAR
STARTCHAR U+00023
ENCODING 35
SWIDTH 500 0
DWIDTH 8 0
BBX 8 16 0 0
BITMAP
00
00
00
6C
6C
FE
FE
6C
6C
FE
FE
6C
6C
00
00
00
ENDCHAR
STARTCHAR U+00024
ENCODING 36
SWIDTH 500 0
DWIDTH 8 0
BBX 8 16 0 0
BITMAP
00
00
30
30
7C
FC
C0
F8
7C
0C
FC
F8
30
30
00
00
ENDCHAR
STARTCHAR U+00025
ENCODING 37
SWIDTH 500 0
DWIDTH 8 0
BBX 8 16 0 0
BITMAP
00
00
00
E0
A6
EE
1C
38
70
EE
CA
0E
00
00
00
00
ENDCHAR
STARTCHAR U+00026
ENCODING 38
SWIDTH 500 0
DWIDTH 8 0
BBX 8 16 0 0
BITMAP
00
00
00
70
F8
D8
F8
76
FE
DC
CC
FE
76
00
00
00
ENDCHAR
STARTCHAR U+00027
ENCODING 39
SWIDTH 500 0
DWIDTH 8 0
BBX 8 16 0 0
BITMAP
00
00
18
18
18
38
30
00
00
00
00
00
00
00
00
00
ENDCHAR
STARTCHAR U+00028
ENCODING 40
SWIDTH 500 0
DWIDTH 8 0
BBX 8 16 0 0
BITMAP
00
00
18
38
30
70
60
60
60
60
70
30
38
18
00
00
ENDCHAR
STARTCHAR U+00029
ENCODING 41
SWIDTH 500 0
DWIDTH 8 0
BBX 8 16 0 0
BITMAP
00
00
60
70
30
38
18
18
18
18
38
30
70
60
00
00
ENDCHAR
STARTCHAR U+0002a
ENCODING 42
SWIDTH 500 0
DWIDTH 8 0
BBX 8 16 0 0
BITMAP
00
00
00
00
00
6C
6C
38
FE
FE
38
6C
6C
00
00
00
ENDCHAR
STARTCHAR U+0002b
ENCODING 43
SWIDTH 500 0
DWIDTH 8 0
BBX 8 16 0 0
BITMAP
00
00
00
00
00
30
30
30
FC
FC
30
30
30
00
00
00
ENDCHAR
STARTCHAR U+0002c
ENCODING 44
SWIDTH 500 0
DWIDTH 8 0
BBX 8 16 0 0
BITMAP
00
00
00
00
00
00
00
00
00
00
18
18
18
38
30
00
ENDCHAR
STARTCHAR U+0002d
ENCODING 45
SWIDTH 500 0
DWIDTH 8 0
BBX 8 16 0 0
BITMAP
00
00
00
00
00
00
00
00
FE
FE
00
00
00
00
00
00
ENDCHAR
STARTCHAR U+0002e
ENCODING 46
SWIDTH 500 0
DWIDTH 8 0
BBX 8 16 0 0
BITMAP
00
00
00
00
00
00
00
00
00
00
00
18
18
00
00
00
ENDCHAR
STARTCHAR U+0002f
ENCODING 47
SWIDTH 500 0
DWIDTH 8 0
BBX 8 16 0 0
BITMAP
00
00
06
06
0C
0C
18
18
30
30
60
60
C0
C0
00
00
ENDCHAR
STARTCHAR U+00030
ENCODING 48
SWIDTH 500 0
DWIDTH 8 0
BBX 8 16 0 0
BITMAP
00
00
00
7C
FE
C6
CE
DE
F6
E6
C6
FE
7C
00
00
00
ENDCHAR
STARTCHAR U+00031
ENCODING 49
SWIDTH 500 0
DWIDTH 8 0
BBX 8 16 0 0
BITMAP
00
00
00
18
38
78
58
18
18
18
18
18
18
00
00
00
ENDCHAR
STARTCHAR U+00032
ENCODING 50
SWIDTH 500 0
DWIDTH 8 0
BBX 8 16 0 0
BITMAP
00
00
00
7C
FE
C6
0E
1C
38
70
E0
FE
FE
00
00
00
ENDCHAR
STARTCHAR U+00033
ENCODING 51
SWIDTH 500 0
DWIDTH 8 0
BBX 8 16 0 0
BITMAP
00
00
00
FE
FE
0C
18
3C
0E
06
C6
FE
7C
00
00
00
ENDCHAR
STARTCHAR U+00034
ENCODING 52
SWIDTH 500 0
DWIDTH 8 0
BBX 8 16 0 0
BITMAP
00
00
00
0C
1C
3C
7C
EC
CC
FE
FE
0C
0C
00
00
00
ENDCHAR
STARTCHAR U+00035
ENCODING 53
SWIDTH 500 0
DWIDTH 8 0
BBX 8 16 0 0
BITMAP
00
00
00
FE
FE
C0
FC
FE
06
06
C6
FE
7C
00
00
00
ENDCHAR
STARTCHAR U+00036
ENCODING 54
SWIDTH 500 0
DWIDTH 8 0
BBX 8 16 0 0
BITMAP
00
00
00
3C
7C
E0
C0
FC
FE
C6
C6
FE
7C
00
00
00
ENDCHAR
STARTCHAR U+00037
ENCODING 55
SWIDTH 500 0
DWIDTH 8 0
BBX 8 16 0 0
BITMAP
00
00
00
FE
FE
06
0E
1C
18
38
30
30
30
00
00
00
ENDCHAR
STARTCHAR U+00038
ENCODING 56
SWIDTH 500 0
DWIDTH 8 0
BBX 8 16 0 0
BITMAP
00
00
00
7C
FE
C6
C6
7C
FE
C6
C6
FE
7C
00
00
00
ENDCHAR
STARTCHAR U+00039
ENCODING 57
SWIDTH 500 0
DWIDTH 8 0
BBX 8 16 0 0
BITMAP
00
00
00
7C
FE
C6
C6
FE
7E
06
0E
7C
78
00
00
00
ENDCHAR
STARTCHAR U+0003a
ENCODING 58
SWIDTH 500 0
DWIDTH 8 0
BBX 8 16 0 0
BITMAP
00
00
00
00
00
00
18
18
00
00
18
18
00
00
00
00
ENDCHAR
STARTCHAR U+0003b
ENCODING 59
SWIDTH 500 0
DWIDTH 8 0
BBX 8 16 0 0
BITMAP
00
00
00
00
00
00
18
18
00
00
18
18
18
38
30
00
ENDCHAR
STARTCHAR U+0003c
ENCODING 60
SWIDTH 500 0
DWIDTH 8 0
BBX 8 16 0 0
BITMAP
00
00
00
0C
1C
38
70
E0
E0
70
38
1C
0C
00
00
00
ENDCHAR
STARTCHAR U+0003d
ENCODING 61
SWIDTH 500 0
DWIDTH 8 0
BBX 8 16 0 0
BITMAP
00
00
00
00
00
FE
FE
00
00
FE
FE
00
00
00
00
00
ENDCHAR
STARTCHAR U+0003e
ENCODING 62
SWIDTH 500 0
DWIDTH 8 0
BBX 8 16 0 0
BITMAP
00
00
00
C0
E0
70
38
1C
1C
38
70
E0
C0
00
00
00
ENDCHAR
STARTCHAR U+0003f
ENCODING 63
SWIDTH 500 0
DWIDTH 8 0
BBX 8 16 0 0
BITMAP
00
00
00
7C
FE
C6
06
0E
3C
30
00
30
30
00
00
00
ENDCHAR
STARTCHAR U+00040
ENCODING 64
SWIDTH 500 0
DWIDTH 8 0
BBX 8 16 0 0
BITMAP
00
00
00
7C
FE
C6
D6
DE
DE
DC
C0
FC
7C
00
00
00
ENDCHAR
STARTCHAR U+00041
ENCODING 65
SWIDTH 500 0
DWIDTH 8 0
BBX 8 16 0 0
BITMAP
00
00
00
10
38
38
6C
6C
C6
FE
FE
C6
C6
00
00
00
ENDCHAR
STARTCHAR U+00042
ENCODING 66
SWIDTH 500 0
DWIDTH 8 0
BBX 8 16 0 0
BITMAP
00
00
00
FC
FE
66
66
7C
7E
66
66
FE
FC
00
00
00
ENDCHAR
STARTCHAR U+00043
ENCODING 67
SWIDTH 500 0
DWIDTH 8 0
BBX 8 16 0 0
BITMAP
00
00
00
3C
7E
E6
C0
C0
C0
C0
E6
7E
3C
00
00
00
ENDCHAR
STARTCHAR U+00044
ENCODING 68
SWIDTH 500 0
DWIDTH 8 0
BBX 8 16 0 0
BITMAP
00
00
00
F8
FC
CC
C6
C6
C6
C6
CC
FC
F8
00
00
00
ENDCHAR
STARTCHAR U+00045
ENCODING 69
SWIDTH 500 0
DWIDTH 8 0
BBX 8 16 0 0
BITMAP
00
00
00
FE
FE
C0
C0
FC
FC
C0
C0
FE
FE
00
00
00
ENDCHAR
STARTCHAR U+00046
ENCODING 70
SWIDTH 500 0
DWIDTH 8 0
BBX 8 16 0 0
BITMAP
00
00
00
FE
FE
C0
C0
FC
FC
C0
C0
C0
C0
00
00
00
ENDCHAR
STARTCHAR U+00047
ENCODING 71
SWIDTH 500 0
DWIDTH 8 0
BBX 8 16 0 0
BITMAP
00
00
00
3C
7E
E6
C0
DE
DE
C6
E6
7E
3C
00
00
00
ENDCHAR
STARTCHAR U+00048
ENCODING 72
SWIDTH 500 0
DWIDTH 8 0
BBX 8 16 0 0
BITMAP
00
00
00
C6
C6
C6
C6
FE
FE
C6
C6
C6
C6
00
00
00
ENDCHAR
STARTCHAR U+00049
ENCODING 73
SWIDTH 500 0
DWIDTH 8 0
BBX 8 16 0 0
BITMAP
00
00
00
FC
FC
30
30
30
30
30
30
FC
FC
00
00
00
ENDCHAR
STARTCHAR U+0004a
ENCODING 74
SWIDTH 500 0
DWIDTH 8 0
BBX 8 16 0 0
BITMAP
00
00
00
06
06
06
06
06
06
06
CE
FC
78
00
00
00
ENDCHAR
STARTCHAR U+0004b
ENCODING 75
SWIDTH 500 0
DWIDTH 8 0
BBX 8 16 0 0
BITMAP
00
00
00
C6
CE
DC
F8
F0
F0
F8
DC
CE
C6
00
00
00
ENDCHAR
STARTCHAR U+0004c
ENCODING 76
SWIDTH 500 0
DWIDTH 8 0
BBX 8 16 0 0
BITMAP
00
00
00
C0
C0
C0
C0
C0
C0
C0
C0
FE
FE
00
00
00
ENDCHAR
STARTCHAR U+0004d
ENCODING 77
SWIDTH 500 0
DWIDTH 8 0
BBX 8 16 0 0
BITMAP
00
00
00
C6
C6
EE
FE
FE
D6
D6
C6
C6
C6
00
00
00
ENDCHAR
STARTCHAR U+0004e
ENCODING 78
SWIDTH 500 0
DWIDTH 8 0
BBX 8 16 0 0
BITMAP
00
00
00
C6
C6
E6
F6
F6
DE
DE
CE
C6
C6
00
00
00
ENDCHAR
STARTCHAR U+0004f
ENCODING 79
SWIDTH 500 0
DWIDTH 8 0
BBX 8 16 0 0
BITMAP
00
00
00
38
7C
EE
C6
C6
C6
C6
EE
7C
38
00
00
00
ENDCHAR
STARTCHAR U+00050
ENCODING 80
SWIDTH 500 0
DWIDTH 8 0
BBX 8 16 0 0
BITMAP
00
00
00
FC
FE
C6
C6
FE
FC
C0
C0
C0
C0
00
00
00
ENDCHAR
STARTCHAR U+00051
ENCODING 81
SWIDTH 500 0
DWIDTH 8 0
BBX 8 16 0 0
BITMAP
00
00
00
7C
FE
C6
C6
C6
DE
DE
CC
FE
76
00
00
00
ENDCHAR
STARTCHAR U+00052
ENCODING 82
SWIDTH 500 0
DWIDTH 8 0
BBX 8 16 0 0
BITMAP
00
00
00
FC
FE
C6
C6
FE
FC
F8
DC
CE
C6
00
00
00
ENDCHAR
STARTCHAR U+00053
ENCODING 83
SWIDTH 500 0
DWIDTH 8 0
BBX 8 16 0 0
BITMAP
00
00
00
7C
FE
C6
E0
78
3C
0E
C6
FE
7C
00
00
00
ENDCHAR
STARTCHAR U+00054
ENCODING 84
SWIDTH 500 0
DWIDTH 8 0
BBX 8 16 0 0
BITMAP
00
00
00
FC
FC
30
30
30
30
30
30
30
30
00
00
00
ENDCHAR
STARTCHAR U+00055
ENCODING 85
SWIDTH 500 0
DWIDTH 8 0
BBX 8 16 0 0
BITMAP
00
00
00
C6
C6
C6
C6
C6
C6
C6
C6
FE
7C
00
00
00
ENDCHAR
STARTCHAR U+00056
ENCODING 86
SWIDTH 500 0
DWIDTH 8 0
BBX 8 16 0 0
BITMAP
00
00
00
C6
C6
C6
C6
6C
6C
6C
38
38
38
00
00
00
ENDCHAR
STARTCHAR U+00057
ENCODING 87
SWIDTH 500 0
DWIDTH 8 0
BBX 8 16 0 0
BITMAP
00
00
00
C6
C6
D6
D6
D6
D6
FE
7C
6C
6C
00
00
00
ENDCHAR
STARTCHAR U+00058
ENCODING 88
SWIDTH 500 0
DWIDTH 8 0
BBX 8 16 0 0
BITMAP
00
00
00
C6
C6
6C
6C
38
38
6C
6C
C6
C6
00
00
00
ENDCHAR
STARTCHAR U+00059
ENCODING 89
SWIDTH 500 0
DWIDTH 8 0
BBX 8 16 0 0
BITMAP
00
00
00
CC
CC
CC
78
78
30
30
30
30
30
00
00
00
ENDCHAR
STARTCHAR U+0005a
ENCODING 90
SWIDTH 500 0
DWIDTH 8 0
BBX 8 16 0 0
BITMAP
00
00
00
FE
FE
06
0C
18
30
60
C0
FE
FE
00
00
00
ENDCHAR
STARTCHAR U+0005b
ENCODING 91
SWIDTH 500 0
DWIDTH 8 0
BBX 8 16 0 0
BITMAP
00
00
7C
7C
60
60
60
60
60
60
60
60
7C
7C
00
00
ENDCHAR
STARTCHAR U+0005c
ENCODING 92
SWIDTH 500 0
DWIDTH 8 0
BBX 8 16 0 0
BITMAP
00
00
C0
C0
60
60
30
30
18
18
0C
0C
06
06
00
00
ENDCHAR
STARTCHAR U+0005d
ENCODING 93
SWIDTH 500 0
DWIDTH 8 0
BBX 8 16 0 0
BITMAP
00
00
7C
7C
0C
0C
0C
0C
0C
0C
0C
0C
7C
7C
00
00
ENDCHAR
STARTCHAR U+0005e
ENCODING 94
SWIDTH 500 0
DWIDTH 8 0
BBX 8 16 0 0
BITMAP
00
00
10
38
7C
EE
C6
00
00
00
00
00
00
00
00
00
ENDCHAR
STARTCHAR U+0005f
ENCODING 95
SWIDTH 500 0
DWIDTH 8 0
BBX 8 16 0 0
BITMAP
00
00
00
00
00
00
00
00
00
00
00
00
FE
FE
00
00
ENDCHAR
STARTCHAR U+00060
ENCODING 96
SWIDTH 500 0
DWIDTH 8 0
BBX 8 16 0 0
BITMAP
00
00
30
30
30
38
18
00
00
00
00
00
00
00
00
00
ENDCHAR
STARTCHAR U+00061
ENCODING 97
SWIDTH 500 0
DWIDTH 8 0
BBX 8 16 0 0
BITMAP
00
00
00
00
00
3C
7E
06
7E
FE
C6
FE
7E
00
00
00
ENDCHAR
STARTCHAR U+00062
ENCODING 98
SWIDTH 500 0
DWIDTH 8 0
BBX 8 16 0 0
BITMAP
00
00
C0
C0
C0
D8
FC
EE
C6
C6
EE
FC
D8
00
00
00
ENDCHAR
STARTCHAR U+00063
ENCODING 99
SWIDTH 500 0
DWIDTH 8 0
BBX 8 16 0 0
BITMAP
00
00
00
00
00
3C
7E
E6
C0
C0
E6
7E
3C
00
00
00
ENDCHAR
STARTCHAR U+00064
ENCODING 100
SWIDTH 500 0
DWIDTH 8 0
BBX 8 16 0 0
BITMAP
00
00
06
06
06
36
7E
EE
C6
C6
EE
7E
36
00
00
00
ENDCHAR
STARTCHAR U+00065
ENCODING 101
SWIDTH 500 0
DWIDTH 8 0
BBX 8 16 0 0
BITMAP
00
00
00
00
00
38
7C
C6
FE
FE
C0
7C
3C
00
00
00
ENDCHAR
STARTCHAR U+00066
ENCODING 102
SWIDTH 500 0
DWIDTH 8 0
BBX 8 16 0 0
BITMAP
00
00
1E
3E
30
FC
FC
30
30
30
30
30
30
00
00
00
ENDCHAR
STARTCHAR U+00067
ENCODING 103
SWIDTH 500 0
DWIDTH 8 0
BBX 8 16 0 0
BITMAP
00
00
00
00
00
36
7E
EE
C6
C6
EE
7E
36
0E
7C
78
ENDCHAR
STARTCHAR U+00068
ENCODING 104
SWIDTH 500 0
DWIDTH 8 0
BBX 8 16 0 0
BITMAP
00
00
C0
C0
C0
DC
FE
E6
C6
C6
C6
C6
C6
00
00
00
ENDCHAR
STARTCHAR U+00069
ENCODING 105
SWIDTH 500 0
DWIDTH 8 0
BBX 8 16 0 0
BITMAP
00
00
18
18
00
78
78
18
18
18
18
18
18
00
00
00
ENDCHAR
STARTCHAR U+0006a
ENCODING 106
SWIDTH 500 0
DWIDTH 8 0
BBX 8 16 0 0
BITMAP
00
00
0C
0C
00
3C
3C
0C
0C
0C
0C
0C
0C
1C
F8
F0
ENDCHAR
STARTCHAR U+0006b
ENCODING 107
SWIDTH 500 0
DWIDTH 8 0
BBX 8 16 0 0
BITMAP
00
00
C0
C0
C0
C6
CE
DC
F8
F8
DC
CE
C6
00
00
00
ENDCHAR
STARTCHAR U+0006c
ENCODING 108
SWIDTH 500 0
DWIDTH 8 0
BBX 8 16 0 0
BITMAP
00
00
78
78
18
18
18
18
18
18
18
18
18
00
00
00
ENDCHAR
STARTCHAR U+0006d
ENCODING 109
SWIDTH 500 0
DWIDTH 8 0
BBX 8 16 0 0
BITMAP
00
00
00
00
00
EC
FE
D6
D6
D6
D6
D6
D6
00
00
00
ENDCHAR
STARTCHAR U+0006e
ENCODING 110
SWIDTH 500 0
DWIDTH 8 0
BBX 8 16 0 0
BITMAP
00
00
00
00
00
DC
FE
E6
C6
C6
C6
C6
C6
00
00
00
ENDCHAR
STARTCHAR U+0006f
ENCODING 111
SWIDTH 500 0
DWIDTH 8 0
BBX 8 16 0 0
BITMAP
00
00
00
00
00
38
7C
EE
C6
C6
EE
7C
38
00
00
00
ENDCHAR
STARTCHAR U+00070
ENCODING 112
SWIDTH 500 0
DWIDTH 8 0
BBX 8 16 0 0
BITMAP
00
00
00
00
00
D8
FC
EE
C6
C6
EE
FC
D8
C0
C0
C0
ENDCHAR
STARTCHAR U+00071
ENCODING 113
SWIDTH 500 0
DWIDTH 8 0
BBX 8 16 0 0
BITMAP
00
00
00
00
00
36
7E
EE
C6
C6
EE
7E
36
06
06
06
ENDCHAR
STARTCHAR U+00072
ENCODING 114
SWIDTH 500 0
DWIDTH 8 0
BBX 8 16 0 0
BITMAP
00
00
00
00
00
DC
FE
E6
C0
C0
C0
C0
C0
00
00
00
ENDCHAR
STARTCHAR U+00073
ENCODING 115
SWIDTH 500 0
DWIDTH 8 0
BBX 8 16 0 0
BITMAP
00
00
00
00
00
7C
FE
C0
FC
7E
06
FE
7C
00
00
00
ENDCHAR
STARTCHAR U+00074
ENCODING 116
SWIDTH 500 0
DWIDTH 8 0
BBX 8 16 0 0
BITMAP
00
00
30
30
30
FE
FE
30
30
30
30
3E
1E
00
00
00
ENDCHAR
STARTCHAR U+00075
ENCODING 117
SWIDTH 500 0
DWIDTH 8 0
BBX 8 16 0 0
BITMAP
00
00
00
00
00
C6
C6
C6
C6
C6
CE
FE
76
00
00
00
ENDCHAR
STARTCHAR U+00076
ENCODING 118
SWIDTH 500 0
DWIDTH 8 0
BBX 8 16 0 0
BITMAP
00
00
00
00
00
C6
C6
C6
6C
6C
38
38
10
00
00
00
ENDCHAR
STARTCHAR U+00077
ENCODING 119
SWIDTH 500 0
DWIDTH 8 0
BBX 8 16 0 0
BITMAP
00
00
00
00
00
C6
C6
D6
D6
D6
FE
6C
6C
00
00
00
ENDCHAR
STARTCHAR U+00078
ENCODING 120
SWIDTH 500 0
DWIDTH 8 0
BBX 8 16 0 0
BITMAP
00
00
00
00
00
C6
EE
7C
38
38
7C
EE
C6
00
00
00
ENDCHAR
STARTCHAR U+00079
ENCODING 121
SWIDTH 500 0
DWIDTH 8 0
BBX 8 16 0 0
BITMAP
00
00
00
00
00
C6
C6
C6
6C
6C
7C
38
18
38
F0
E0
ENDCHAR
STARTCHAR U+0007a
ENCODING 122
SWIDTH 500 0
DWIDTH 8 0
BBX 8 16 0 0
BITMAP
00
00
00
00
00
FE
FE
0C
18
30
60
FE
FE
00
00
00
ENDCHAR
STARTCHAR U+0007b
ENCODING 123
SWIDTH 500 0
DWIDTH 8 0
BBX 8 16 0 0
BITMAP
00
00
0E
1E
18
18
38
F0
F0
38
18
18
1E
0E
00
00
ENDCHAR
STARTCHAR U+0007c
ENCODING 124
SWIDTH 500 0
DWIDTH 8 0
BBX 8 16 0 0
BITMAP
00
00
30
30
30
30
30
30
30
30
30
30
30
30
00
00
ENDCHAR
STARTCHAR U+0007d
ENCODING 125
SWIDTH 500 0
DWIDTH 8 0
BBX 8 16 0 0
BITMAP
00
00
E0
F0
30
30
38
1E
1E
38
30
30
F0
E0
00
00
ENDCHAR
STARTCHAR U+0007e
ENCODING 126
SWIDTH 500 0
DWIDTH 8 0
BBX 8 16 0 0
BITMAP
00
00
00
00
00
66
F6
DE
CC
00
00
00
00
00
00
00
ENDCHAR
STARTCHAR U+0007f
ENCODING 127
SWIDTH 500 0
DWIDTH 8 0
BBX 8 16 0 0
BITMAP
00
00
00
CC
CC
30
30
CC
CC
30
30
CC
CC
00
00
00
ENDCHAR
STARTCHAR U+000a1
ENCODING 161
SWIDTH 500 0
DWIDTH 8 0
BBX 8 16 0 0
BITMAP
00
00
00
30
30
00
30
30
30
30
30
30
30
00
00
00
ENDCHAR
STARTCHAR U+000a2
ENCODING 162
SWIDTH 500 0
DWIDTH 8 0
BBX 8 16 0 0
BITMAP
00
00
00
18
18
7E
FE
D8
D8
FE
7E
18
18
00
00
00
ENDCHAR
STARTCHAR U+000a3
ENCODING 163
SWIDTH 500 0
DWIDTH 8 0
BBX 8 16 0 0
BITMAP
00
00
3C
7E
66
60
F8
F8
60
60
E0
FE
FE
00
00
00
ENDCHAR
STARTCHAR U+000a5
ENCODING 165
SWIDTH 500 0
DWIDTH 8 0
BBX 8 16 0 0
BITMAP
00
00
CC
CC
CC
78
FC
FC
30
FC
FC
30
30
00
00
00
ENDCHAR
STARTCHAR U+000a9
ENCODING 169
SWIDTH 500 0
DWIDTH 8 0
BBX 8 16 0 0
BITMAP
00
00
38
7C
C6
82
BA
A2
BA
82
C6
7C
38
00
00
00
ENDCHAR
STARTCHAR U+000aa
ENCODING 170
SWIDTH 500 0
DWIDTH 8 0
BBX 8 16 0 0
BITMAP
00
38
0C
3C
6C
3C
00
7C
7C
00
00
00
00
00
00
00
ENDCHAR
STARTCHAR U+000ab
ENCODING 171
SWIDTH 500 0
DWIDTH 8 0
BBX 8 16 0 0
BITMAP
00
00
00
00
00
36
6C
D8
D8
6C
36
00
00
00
00
00
ENDCHAR
STARTCHAR U+000ae
ENCODING 174
SWIDTH 500 0
DWIDTH 8 0
BBX 8 16 0 0
BITMAP
00
00
38
7C
C6
B2
AA
B2
AA
AA
C6
7C
38
00
00
00
ENDCHAR
STARTCHAR U+000b0
ENCODING 176
SWIDTH 500 0
DWIDTH 8 0
BBX 8 16 0 0
BITMAP
00
38
7C
6C
7C
38
00
00
00
00
00
00
00
00
00
00
ENDCHAR
STARTCHAR U+000ba
ENCODING 186
SWIDTH 500 0
DWIDTH 8 0
BBX 8 16 0 0
BITMAP
00
38
6C
6C
6C
38
00
7C
7C
00
00
00
00
00
00
00
ENDCHAR
STARTCHAR U+000bb
ENCODING 187
SWIDTH 500 0
DWIDTH 8 0
BBX 8 16 0 0
BITMAP
00
00
00
00
00
D8
6C
36
36
6C
D8
00
00
00
00
00
ENDCHAR
STARTCHAR U+000bf
ENCODING 191
SWIDTH 500 0
DWIDTH 8 0
BBX 8 16 0 0
BITMAP
00
00
00
18
18
00
18
78
E0
C0
C6
FE
7C
00
00
00
ENDCHAR
STARTCHAR U+000c0
ENCODING 192
SWIDTH 500 0
DWIDTH 8 0
BBX 8 16 0 0
BITMAP
70
7C
1C
10
38
38
6C
6C
C6
FE
FE
C6
C6
00
00
00
ENDCHAR
STARTCHAR U+000c1
ENCODING 193
SWIDTH 500 0
DWIDTH 8 0
BBX 8 16 0 0
BITMAP
1C
7C
70
10
38
38
6C
6C
C6
FE
FE
C6
C6
00
00
00
ENDCHAR
STARTCHAR U+000c2
ENCODING 194
SWIDTH 500 0
DWIDTH 8 0
BBX 8 16 0 0
BITMAP
38
7C
EE
10
38
38
6C
6C
C6
FE
FE
C6
C6
00
00
00
ENDCHAR
STARTCHAR U+000c3
ENCODING 195
SWIDTH 500 0
DWIDTH 8 0
BBX 8 16 0 0
BITMAP
76
FE
DC
10
38
38
6C
6C
C6
FE
FE
C6
C6
00
00
00
ENDCHAR
STARTCHAR U+000c4
ENCODING 196
SWIDTH 500 0
DWIDTH 8 0
BBX 8 16 0 0
BITMAP
00
6C
6C
10
38
38
6C
6C
C6
FE
FE
C6
C6
00
00
00
ENDCHAR
STARTCHAR U+000c5
ENCODING 197
SWIDTH 500 0
DWIDTH 8 0
BBX 8 16 0 0
BITMAP
38
6C
6C
38
38
38
6C
6C
C6
FE
FE
C6
C6
00
00
00
ENDCHAR
STARTCHAR U+000c6
ENCODING 198
SWIDTH 500 0
DWIDTH 8 0
BBX 8 16 0 0
BITMAP
00
00
00
1E
3E
78
F8
DE
DE
F8
F8
DE
DE
00
00
00
ENDCHAR
STARTCHAR U+000c7
ENCODING 199
SWIDTH 500 0
DWIDTH 8 0
BBX 8 16 0 0
BITMAP
00
00
00
3C
7E
E6
C0
C0
C0
C0
E6
7E
3C
18
78
30
ENDCHAR
STARTCHAR U+000c8
ENCODING 200
SWIDTH 500 0
DWIDTH 8 0
BBX 8 16 0 0
BITMAP
70
7C
1C
00
FE
FE
C0
FC
FC
C0
C0
FE
FE
00
00
00
ENDCHAR
STARTCHAR U+000c9
ENCODING 201
SWIDTH 500 0
DWIDTH 8 0
BBX 8 16 0 0
BITMAP
1C
7C
70
00
FE
FE
C0
FC
FC
C0
C0
FE
FE
00
00
00
ENDCHAR
STARTCHAR U+000ca
ENCODING 202
SWIDTH 500 0
DWIDTH 8 0
BBX 8 16 0 0
BITMAP
38
7C
EE
00
FE
FE
C0
FC
FC
C0
C0
FE
FE
00
00
00
ENDCHAR
STARTCHAR U+000cb
ENCODING 203
SWIDTH 500 0
DWIDTH 8 0
BBX 8 16 0 0
BITMAP
00
6C
6C
00
FE
FE
C0
FC
FC
C0
C0
FE
FE
00
00
00
ENDCHAR
STARTCHAR U+000cc
ENCODING 204
SWIDTH 500 0
DWIDTH 8 0
BBX 8 16 0 0
BITMAP
E0
F8
38
00
FC
FC
30
30
30
30
30
FC
FC
00
00
00
ENDCHAR
STARTCHAR U+000cd
ENCODING 205
SWIDTH 500 0
DWIDTH 8 0
BBX 8 16 0 0
BITMAP
1C
7C
70
00
FC
FC
30
30
30
30
30
FC
FC
00
00
00
ENDCHAR
STARTCHAR U+000ce
ENCODING 206
SWIDTH 500 0
DWIDTH 8 0
BBX 8 16 0 0
BITMAP
30
78
CC
00
FC
FC
30
30
30
30
30
FC
FC
00
00
00
ENDCHAR
STARTCHAR U+000cf
ENCODING 207
SWIDTH 500 0
DWIDTH 8 0
BBX 8 16 0 0
BITMAP
00
CC
CC
00
FC
FC
30
30
30
30
30
FC
FC
00
00
00
ENDCHAR
STARTCHAR U+000d0
ENCODING 208
SWIDTH 500 0
DWIDTH 8 0
BBX 8 16 0 0
BITMAP
00
00
00
78
7C
6C
66
F6
F6
66
6C
7C
78
00
00
00
ENDCHAR
STARTCHAR U+000d1
ENCODING 209
SWIDTH 500 0
DWIDTH 8 0
BBX 8 16 0 0
BITMAP
76
FE
DC
00
C6
C6
E6
F6
FE
DE
CE
C6
C6
00
00
00
ENDCHAR
STARTCHAR U+000d2
ENCODING 210
SWIDTH 500 0
DWIDTH 8 0
BBX 8 16 0 0
BITMAP
70
7C
1C
00
38
7C
EE
C6
C6
C6
EE
7C
38
00
00
00
ENDCHAR
STARTCHAR U+000d3
ENCODING 211
SWIDTH 500 0
DWIDTH 8 0
BBX 8 16 0 0
BITMAP
1C
7C
70
00
38
7C
EE
C6
C6
C6
EE
7C
38
00
00
00
ENDCHAR
STARTCHAR U+000d4
ENCODING 212
SWIDTH 500 0
DWIDTH 8 0
BBX 8 16 0 0
BITMAP
38
7C
EE
00
38
7C
EE
C6
C6
C6
EE
7C
38
00
00
00
ENDCHAR
STARTCHAR U+000d5
ENCODING 213
SWIDTH 500 0
DWIDTH 8 0
BBX 8 16 0 0
BITMAP
76
FE
DC
00
38
7C
EE
C6
C6
C6
EE
7C
38
00
00
00
ENDCHAR
STARTCHAR U+000d6
ENCODING 214
SWIDTH 500 0
DWIDTH 8 0
BBX 8 16 0 0
BITMAP
00
6C
6C
00
38
7C
EE
C6
C6
C6
EE
7C
38
00
00
00
ENDCHAR
STARTCHAR U+000d7
ENCODING 215
SWIDTH 500 0
DWIDTH 8 0
BBX 8 16 0 0
BITMAP
00
00
00
00
C6
EE
7C
38
38
7C
EE
C6
00
00
00
00
ENDCHAR
STARTCHAR U+000d8
ENCODING 216
SWIDTH 500 0
DWIDTH 8 0
BBX 8 16 0 0
BITMAP
00
00
00
36
7E
EC
DE
DE
F6
F6
6E
FC
D8
00
00
00
ENDCHAR
STARTCHAR U+000d9
ENCODING 217
SWIDTH 500 0
DWIDTH 8 0
BBX 8 16 0 0
BITMAP
70
7C
1C
00
C6
C6
C6
C6
C6
C6
C6
FE
7C
00
00
00
ENDCHAR
STARTCHAR U+000da
ENCODING 218
SWIDTH 500 0
DWIDTH 8 0
BBX 8 16 0 0
BITMAP
1C
7C
70
00
C6
C6
C6
C6
C6
C6
C6
FE
7C
00
00
00
ENDCHAR
STARTCHAR U+000db
ENCODING 219
SWIDTH 500 0
DWIDTH 8 0
BBX 8 16 0 0
BITMAP
38
7C
EE
00
C6
C6
C6
C6
C6
C6
C6
FE
7C
00
00
00
ENDCHAR
STARTCHAR U+000dc
ENCODING 220
SWIDTH 500 0
DWIDTH 8 0
BBX 8 16 0 0
BITMAP
00
6C
6C
00
C6
C6
C6
C6
C6
C6
C6
FE
7C
00
00
00
ENDCHAR
STARTCHAR U+000dd
ENCODING 221
SWIDTH 500 0
DWIDTH 8 0
BBX 8 16 0 0
BITMAP
38
F8
E0
00
CC
CC
CC
FC
78
30
30
30
30
00
00
00
ENDCHAR
STARTCHAR U+000de
ENCODING 222
SWIDTH 500 0
DWIDTH 8 0
BBX 8 16 0 0
BITMAP
00
00
00
C0
C0
FC
FE
C6
C6
FE
FC
C0
C0
00
00
00
ENDCHAR
STARTCHAR U+000df
ENCODING 223
SWIDTH 500 0
DWIDTH 8 0
BBX 8 16 0 0
BITMAP
00
00
78
FC
CC
CC
D8
DC
CE
C6
C6
DE
DC
00
00
00
ENDCHAR
STARTCHAR U+000e0
ENCODING 224
SWIDTH 500 0
DWIDTH 8 0
BBX 8 16 0 0
BITMAP
00
70
7C
1C
00
3C
7E
06
7E
FE
C6
FE
7E
00
00
00
ENDCHAR
STARTCHAR U+000e1
ENCODING 225
SWIDTH 500 0
DWIDTH 8 0
BBX 8 16 0 0
BITMAP
00
1C
7C
70
00
3C
7E
06
7E
FE
C6
FE
7E
00
00
00
ENDCHAR
STARTCHAR U+000e2
ENCODING 226
SWIDTH 500 0
DWIDTH 8 0
BBX 8 16 0 0
BITMAP
00
38
7C
EE
00
3C
7E
06
7E
FE
C6
FE
7E
00
00
00
ENDCHAR
STARTCHAR U+000e3
ENCODING 227
SWIDTH 500 0
DWIDTH 8 0
BBX 8 16 0 0
BITMAP
00
76
FE
DC
00
3C
7E
06
7E
FE
C6
FE
7E
00
00
00
ENDCHAR
STARTCHAR U+000e4
ENCODING 228
SWIDTH 500 0
DWIDTH 8 0
BBX 8 16 0 0
BITMAP
00
00
6C
6C
00
3C
7E
06
7E
FE
C6
FE
7E
00
00
00
ENDCHAR
STARTCHAR U+000e5
ENCODING 229
SWIDTH 500 0
DWIDTH 8 0
BBX 8 16 0 0
BITMAP
00
38
6C
6C
38
3C
7E
06
7E
FE
C6
FE
7E
00
00
00
ENDCHAR
STARTCHAR U+000e6
ENCODING 230
SWIDTH 500 0
DWIDTH 8 0
BBX 8 16 0 0
BITMAP
00
00
00
00
00
7C
FE
36
7E
FC
D8
FE
7C
00
00
00
ENDCHAR
STARTCHAR U+000e7
ENCODING 231
SWIDTH 500 0
DWIDTH 8 0
BBX 8 16 0 0
BITMAP
00
00
00
00
00
3C
7E
E6
C0
C0
E6
7E
3C
18
78
30
ENDCHAR
STARTCHAR U+000e8
ENCODING 232
SWIDTH 500 0
DWIDTH 8 0
BBX 8 16 0 0
BITMAP
00
70
7C
1C
00
38
7C
C6
FE
FE
C0
7C
3C
00
00
00
ENDCHAR
STARTCHAR U+000e9
ENCODING 233
SWIDTH 500 0
DWIDTH 8 0
BBX 8 16 0 0
BITMAP
00
1C
7C
70
00
38
7C
C6
FE
FE
C0
7C
3C
00
00
00
ENDCHAR
STARTCHAR U+000ea
ENCODING 234
SWIDTH 500 0
DWIDTH 8 0
BBX 8 16 0 0
BITMAP
00
38
7C
EE
00
38
7C
C6
FE
FE
C0
7C
3C
00
00
00
ENDCHAR
STARTCHAR U+000eb
ENCODING 235
SWIDTH 500 0
DWIDTH 8 0
BBX 8 16 0 0
BITMAP
00
00
6C
6C
00
38
7C
C6
FE
FE
C0
7C
3C
00
00
00
ENDCHAR
STARTCHAR U+000ec
ENCODING 236
SWIDTH 500 0
DWIDTH 8 0
BBX 8 16 0 0
BITMAP
00
70
7C
1C
00
78
78
18
18
18
18
18
18
00
00
00
ENDCHAR
STARTCHAR U+000ed
ENCODING 237
SWIDTH 500 0
DWIDTH 8 0
BBX 8 16 0 0
BITMAP
00
1C
7C
70
00
78
78
18
18
18
18
18
18
00
00
00
ENDCHAR
STARTCHAR U+000ee
ENCODING 238
SWIDTH 500 0
DWIDTH 8 0
BBX 8 16 0 0
BITMAP
00
38
7C
EE
00
78
78
18
18
18
18
18
18
00
00
00
ENDCHAR
STARTCHAR U+000ef
ENCODING 239
SWIDTH 500 0
DWIDTH 8 0
BBX 8 16 0 0
BITMAP
00
00
6C
6C
00
78
78
18
18
18
18
18
18
00
00
00
ENDCHAR
STARTCHAR U+000f0
ENCODING 240
SWIDTH 500 0
DWIDTH 8 0
BBX 8 16 0 0
BITMAP
00
00
30
3C
78
1C
3C
7E
EE
C6
EE
7C
38
00
00
00
ENDCHAR
STARTCHAR U+000f1
ENCODING 241
SWIDTH 500 0
DWIDTH 8 0
BBX 8 16 0 0
BITMAP
00
76
FE
DC
00
DC
FE
E6
C6
C6
C6
C6
C6
00
00
00
ENDCHAR
STARTCHAR U+000f2
ENCODING 242
SWIDTH 500 0
DWIDTH 8 0
BBX 8 16 0 0
BITMAP
00
70
7C
1C
00
38
7C
EE
C6
C6
EE
7C
38
00
00
00
ENDCHAR
STARTCHAR U+000f3
ENCODING 243
SWIDTH 500 0
DWIDTH 8 0
BBX 8 16 0 0
BITMAP
00
1C
7C
70
00
38
7C
EE
C6
C6
EE
7C
38
00
00
00
ENDCHAR
STARTCHAR U+000f4
ENCODING 244
SWIDTH 500 0
DWIDTH 8 0
BBX 8 16 0 0
BITMAP
00
38
7C
EE
00
38
7C
EE
C6
C6
EE
7C
38
00
00
00
ENDCHAR
STARTCHAR U+000f5
ENCODING 245
SWIDTH 500 0
DWIDTH 8 0
BBX 8 16 0 0
BITMAP
00
76
FE
DC
00
38
7C
EE
C6
C6
EE
7C
38
00
00
00
ENDCHAR
STARTCHAR U+000f6
ENCODING 246
SWIDTH 500 0
DWIDTH 8 0
BBX 8 16 0 0
BITMAP
00
00
6C
6C
00
38
7C
EE
C6
C6
EE
7C
38
00
00
00
ENDCHAR
STARTCHAR U+000f7
ENCODING 247
SWIDTH 500 0
DWIDTH 8 0
BBX 8 16 0 0
BITMAP
00
00
00
00
30
30
00
FC
FC
00
30
30
00
00
00
00
ENDCHAR
STARTCHAR U+000f8
ENCODING 248
SWIDTH 500 0
DWIDTH 8 0
BBX 8 16 0 0
BITMAP
00
00
00
00
00
36
7E
EC
DE
F6
6E
FC
D8
00
00
00
ENDCHAR
STARTCHAR U+000f9
ENCODING 249
SWIDTH 500 0
DWIDTH 8 0
BBX 8 16 0 0
BITMAP
00
70
7C
1C
00
C6
C6
C6
C6
C6
CE
FE
76
00
00
00
ENDCHAR
STARTCHAR U+000fa
ENCODING 250
SWIDTH 500 0
DWIDTH 8 0
BBX 8 16 0 0
BITMAP
00
1C
7C
70
00
C6
C6
C6
C6
C6
CE
FE
76
00
00
00
ENDCHAR
STARTCHAR U+000fb
ENCODING 251
SWIDTH 500 0
DWIDTH 8 0
BBX 8 16 0 0
BITMAP
00
38
7C
EE
00
C6
C6
C6
C6
C6
CE
FE
76
00
00
00
ENDCHAR
STARTCHAR U+000fc
ENCODING 252
SWIDTH 500 0
DWIDTH 8 0
BBX 8 16 0 0
BITMAP
00
00
6C
6C
00
C6
C6
C6
C6
C6
CE
FE
76
00
00
00
ENDCHAR
STARTCHAR U+000fd
ENCODING 253
SWIDTH 500 0
DWIDTH 8 0
BBX 8 16 0 0
BITMAP
00
1C
7C
70
00
C6
C6
C6
6C
6C
7C
38
18
38
F0
E0
ENDCHAR
STARTCHAR U+000fe
ENCODING 254
SWIDTH 500 0
DWIDTH 8 0
BBX 8 16 0 0
BITMAP
00
00
C0
C0
C0
D8
FC
EE
C6
C6
EE
FC
D8
C0
C0
C0
ENDCHAR
STARTCHAR U+000ff
ENCODING 255
SWIDTH 500 0
DWIDTH 8 0
BBX 8 16 0 0
BITMAP
00
00
6C
6C
00
C6
C6
C6
6C
6C
7C
38
18
38
F0
E0
ENDCHAR
STARTCHAR U+00152
ENCODING 338
SWIDTH 500 0
DWIDTH 8 0
BBX 8 16 0 0
BITMAP
00
00
00
7E
FE
D8
D8
DE
DE
D8
D8
FE
7E
00
00
00
ENDCHAR
STARTCHAR U+00153
ENCODING 339
SWIDTH 500 0
DWIDTH 8 0
BBX 8 16 0 0
BITMAP
00
00
00
00
00
7C
FE
D6
DE
DC
D8
FE
7C
00
00
00
ENDCHAR
STARTCHAR U+00178
ENCODING 376
SWIDTH 500 0
DWIDTH 8 0
BBX 8 16 0 0
BITMAP
00
CC
CC
00
CC
CC
CC
78
78
30
30
30
30
00
00
00
ENDCHAR
STARTCHAR U+01e9e
ENCODING 7838
SWIDTH 500 0
DWIDTH 8 0
BBX 8 16 0 0
BITMAP
00
00
00
7E
FE
CC
D8
DC
CE
C6
C6
DE
DC
00
00
00
ENDCHAR
STARTCHAR U+02022
ENCODING 8226
SWIDTH 500 0
DWIDTH 8 0
BBX 8 16 0 0
BITMAP
00
00
00
00
00
38
7C
7C
7C
7C
38
00
00
00
00
00
ENDCHAR
STARTCHAR U+02026
ENCODING 8230
SWIDTH 500 0
DWIDTH 8 0
BBX 8 16 0 0
BITMAP
00
00
00
00
00
00
00
00
00
00
00
DB
DB
00
00
00
ENDCHAR
STARTCHAR U+020ac
ENCODING 8364
SWIDTH 500 0
DWIDTH 8 0
BBX 8 16 0 0
BITMAP
00
00
1E
3E
70
FC
FC
60
FC
FC
70
3E
1E
00
00
00
ENDCHAR
STARTCHAR U+020b9
ENCODING 8377
SWIDTH 500 0
DWIDTH 8 0
BBX 8 16 0 0
BITMAP
00
00
FE
FE
0C
FE
FE
0C
FC
F8
1C
0E
06
00
00
00
ENDCHAR
STARTCHAR U+02122
ENCODING 8482
SWIDTH 500 0
DWIDTH 8 0
BBX 8 16 0 0
BITMAP
00
EA
4E
4E
4A
00
00
00
00
00
00
00
00
00
00
00
ENDCHAR
STARTCHAR U+02190
ENCODING 8592
SWIDTH 500 0
DWIDTH 8 0
BBX 8 16 0 0
BITMAP
00
00
00
00
00
10
30
7E
FE
7E
30
10
00
00
00
00
ENDCHAR
STARTCHAR U+02191
ENCODING 8593
SWIDTH 500 0
DWIDTH 8 0
BBX 8 16 0 0
BITMAP
00
00
00
00
10
38
7C
FE
38
38
38
38
00
00
00
00
ENDCHAR
STARTCHAR U+02192
ENCODING 8594
SWIDTH 500 0
DWIDTH 8 0
BBX 8 16 0 0
BITMAP
00
00
00
00
00
10
18
FC
FE
FC
18
10
00
00
00
00
ENDCHAR
STARTCHAR U+02193
ENCODING 8595
SWIDTH 500 0
DWIDTH 8 0
BBX 8 16 0 0
BITMAP
00
00
00
00
38
38
38
38
FE
7C
38
10
00
00
00
00
ENDCHAR
STARTCHAR U+02500
ENCODING 9472
SWIDTH 500 0
DWIDTH 8 0
BBX 8 16 0 0
BITMAP
00
00
00
00
00
00
00
FF
FF
00
00
00
00
00
00
00
ENDCHAR
STARTCHAR U+02502
ENCODING 9474
SWIDTH 500 0
DWIDTH 8 0
BBX 8 16 0 0
BITMAP
18
18
18
18
18
18
18
18
18
18
18
18
18
18
18
18
ENDCHAR
STARTCHAR U+0250c
ENCODING 9484
SWIDTH 500 0
DWIDTH 8 0
BBX 8 16 0 0
BITMAP
00
00
00
00
00
00
00
0F
1F
18
18
18
18
18
18
18
ENDCHAR
STARTCHAR U+02510
ENCODING 9488
SWIDTH 500 0
DWIDTH 8 0
BBX 8 16 0 0
BITMAP
00
00
00
00
00
00
00
F0
F8
18
18
18
18
18
18
18
ENDCHAR
STARTCHAR U+02514
ENCODING 9492
SWIDTH 500 0
DWIDTH 8 0
BBX 8 16 0 0
BITMAP
18
18
18
18
18
18
18
1F
0F
00
00
00
00
00
00
00
ENDCHAR
STARTCHAR U+02518
ENCODING 9496
SWIDTH 500 0
DWIDTH 8 0
BBX 8 16 0 0
BITMAP
18
18
18
18
18
18
18
F8
F0
00
00
00
00
00
00
00
ENDCHAR
STARTCHAR U+0251c
ENCODING 9500
SWIDTH 500 0
DWIDTH 8 0
BBX 8 16 0 0
BITMAP
18
18
18
18
18
18
18
1F
1F
18
18
18
18
18
18
18
ENDCHAR
STARTCHAR U+02524
ENCODING 9508
SWIDTH 500 0
DWIDTH 8 0
BBX 8 16 0 0
BITMAP
18
18
18
18
18
18
18
F8
F8
18
18
18
18
18
18
18
ENDCHAR
STARTCHAR U+0252c
ENCODING 9516
SWIDTH 500 0
DWIDTH 8 0
BBX 8 16 0 0
BITMAP
00
00
00
00
00
00
00
FF
FF
18
18
18
18
18
18
18
ENDCHAR
STARTCHAR U+02534
ENCODING 9524
SWIDTH 500 0
DWIDTH 8 0
BBX 8 16 0 0
BITMAP
18
18
18
18
18
18
18
FF
FF
00
00
00
00
00
00
00
ENDCHAR
STARTCHAR U+0253c
ENCODING 9532
SWIDTH 500 0
DWIDTH 8 0
BBX 8 16 0 0
BITMAP
18
18
18
18
18
18
18
FF
FF
18
18
18
18
18
18
18
ENDCHAR
STARTCHAR U+02580
ENCODING 9600
SWIDTH 500 0
DWIDTH 8 0
BBX 8 16 0 0
BITMAP
FF
FF
FF
FF
FF
FF
FF
FF
00
00
00
00
00
00
00
00
ENDCHAR
STARTCHAR U+02584
ENCODING 9604
SWIDTH 500 0
DWIDTH 8 0
BBX 8 16 0 0
BITMAP
00
00
00
00
00
00
00
00
FF
FF
FF
FF
FF
FF
FF
FF
ENDCHAR
STARTCHAR U+02588
ENCODING 9608
SWIDTH 500 0
DWIDTH 8 0
BBX 8 16 0 0
BITMAP
FF
FF
FF
FF
FF
FF
FF
FF
FF
FF
FF
FF
FF
FF
FF
FF
ENDCHAR
STARTCHAR U+02592
ENCODING 9618
SWIDTH 500 0
DWIDTH 8 0
BBX 8 16 0 0
BITMAP
CC
CC
33
33
CC
CC
33
33
CC
CC
33
33
CC
CC
33
33
ENDCHAR
ENDFONT
